<svg width="277" height="97" viewBox="0 0 277 97" fill="none" xmlns="http://www.w3.org/2000/svg">
<path d="M163.165 7.25969C163.83 7.2459 164.552 6.69517 164.77 6.03607L166.603 0.494324C166.821 -0.164775 167.178 -0.164775 167.397 0.494324L169.231 6.03607C169.449 6.69517 170.171 7.2459 170.835 7.25969L176.419 7.37989C177.084 7.39368 177.194 7.75032 176.665 8.171L172.214 11.7158C171.684 12.1374 171.408 13.028 171.601 13.697L173.219 19.3116C173.41 19.9796 173.122 20.1993 172.577 19.8023L167.992 16.4506C167.447 16.0516 166.555 16.0516 166.008 16.4506L161.424 19.8023C160.877 20.1993 160.589 19.9796 160.782 19.3116L162.399 13.697C162.591 13.028 162.316 12.1374 161.786 11.7158L157.335 8.171C156.805 7.75032 156.916 7.39368 157.58 7.37989L163.165 7.25969Z" fill="#D34508"/>
<path d="M157.352 45.7702C156.889 46.5968 157.674 47.0138 158.051 47.3525C158.364 47.636 158.828 47.8965 158.888 48.2776C158.945 48.6366 158.527 49.1235 158.368 49.1649C157.615 49.3601 157.617 49.8397 157.822 50.3478C158.395 51.7736 158.813 52.4612 159.273 53.9183C159.974 54.5101 160.044 56.1615 160.167 57.4492C159.721 59.0987 160.016 59.4494 161.667 60.0358C161.727 60.0569 161.79 60.0781 161.852 60.0965C162.893 60.4039 163.644 60.5301 163.967 61.7736C164.009 61.9329 164.511 62.2431 164.675 62.3287C165.728 62.8782 166.366 63.3835 166.918 64.4135C168.578 65.5715 169.057 66.4929 168.924 68.7324C169.909 69.5305 169.069 70.5117 169.707 70.6028C172.293 70.9728 176 71.6043 178.588 71.9633C179.631 72.1087 179.755 71.8409 179.495 70.8237C179.368 70.3267 179.395 69.9005 179.543 69.4007C179.681 68.9303 180.277 68.4259 180.355 67.9251C180.475 67.1418 181.486 66.5601 182 65.8219C181.915 64.9456 181.463 64.4504 181.19 63.5428C181.047 63.0706 180.977 62.3277 180.673 61.8454C176.695 55.5392 172.486 48.632 168.407 42.3847C168.011 41.7781 167.952 41.2682 168.164 40.5926C169.225 37.2043 171.539 29.8101 171.661 29.3775C167.257 27.9848 162.323 26.351 158.081 25.008C157.976 24.9795 157.904 25.0301 157.869 25.1166C157.822 25.2335 157.723 25.6081 157.74 25.7287C157.983 27.6396 156.688 29.0765 155.502 30.4038C154.88 31.1025 154.856 31.4117 155.318 32.3C155.846 33.3107 156.145 34.8423 155.714 36.0583C155.289 37.2586 155.154 38.9467 156.208 39.9758C156.755 40.5079 156.656 41.3584 156.704 42.0497C156.759 42.844 157.5 43.9228 157.825 43.6587C158.149 43.3936 158.766 42.1353 158.869 42.3847C158.972 42.6323 158.443 43.5307 158.459 44.1355C158.481 44.9593 158.898 45.7095 158.658 45.6432C158.243 45.5254 157.728 44.1548 157.448 44.3858C156.911 44.8231 157.543 45.4278 157.352 45.7702Z" fill="#FFC629"/>
<path d="M23.194 39.1047V42.4973H15.2224V38.9247C15.2224 35.7819 13.9342 33.9047 11.7789 33.9047C9.00297 33.9047 7.97071 35.1515 7.97071 38.5044V60.4965C7.97071 63.8485 9.00297 65.0953 11.7789 65.0953C14.192 65.0953 15.2224 63.8447 15.2224 60.9168V55.4812H23.194V60.6756C23.194 69.0249 17.2974 72 11.7789 72C6.08474 72 0 69.0249 0 60.6756V38.3235C0 29.9741 6.08474 27 11.7789 27C18.7135 27 23.194 31.7505 23.194 39.1047ZM47.5301 27.7718L55.6746 71.3997H47.9302L46.749 63.0531H38.4956L37.3383 71.3997H29.5958L29.6426 71.1528L37.7709 27.6012H47.4986L47.5301 27.7718ZM42.6352 37.4113L39.6501 56.1503H45.6318L42.6352 37.4113ZM71.7516 64.494H83.6242V71.3997H63.7809V27.6012H71.7516V64.494ZM115.606 58.6334C115.606 66.866 111.337 71.3997 103.585 71.3997H91.4402V27.6012H102.853C110.751 27.6012 114.755 31.5328 114.755 39.2857C114.755 42.6103 113.448 46.672 109.819 48.3635C113.764 50.2577 115.606 53.5333 115.606 58.6334ZM99.4109 64.854H102.366C106.06 64.854 107.636 62.9222 107.636 58.3931C107.636 53.8641 105.841 51.9323 101.636 51.9323H99.4109V64.854ZM106.783 40.0669C106.783 36.0816 105.238 34.146 102.063 34.146H99.4109V45.3875H101.94C104.927 45.3875 106.783 43.3482 106.783 40.0669ZM142.261 51.6543L148.686 71.3997H140.569L140.523 71.2508L135.216 53.4523C134.347 53.5456 133.004 53.6068 131.681 53.6134V71.3997H123.711V27.6012H134.515C143.503 27.6012 147.512 31.6129 147.512 40.6078C147.512 47.6379 144.698 50.497 142.261 51.6543ZM131.681 47.0687H134.151C138.231 47.0687 139.539 45.4987 139.539 40.6078C139.539 35.716 138.231 34.146 134.151 34.146H131.681V47.0687ZM201.571 48.9921H213.716V71.3997H209.712L208.39 68.337C206.315 70.7146 204.438 72 200.839 72C194.571 72 190.521 67.5548 190.521 60.6756V38.3235C190.521 31.4442 194.953 27 201.814 27C208.821 27 213.348 31.7505 213.348 39.1047V42.077H205.744V41.8687C205.744 35.1741 204.3 33.9047 201.632 33.9047C199.547 33.9047 198.491 35.4314 198.491 38.4441V60.7359C198.491 63.709 199.547 65.0953 201.814 65.0953C204.715 65.0953 205.744 63.5771 205.744 59.294V55.2965H201.571V48.9921ZM238.509 27.6012H246.479V71.3997H238.509V52.1716H230.892V71.3997H222.922V27.6012H230.892V45.2669H238.509V27.6012ZM277 27.6012V34.5069H269.693V71.3997H261.722V34.5069H254.415V27.6012H277Z" fill="#1D1B1D"/>
<path d="M106.522 97C108.872 97 110.433 95.6741 110.683 93.4396H109.065C108.872 94.7509 108.028 95.5809 106.605 95.5809C104.751 95.5809 103.687 94.1619 103.687 91.9658C103.687 89.8116 104.751 88.4191 106.605 88.4191C107.876 88.4191 108.748 89.0893 108.997 90.2262H110.627C110.393 88.2455 108.761 87 106.522 87C103.853 87 102 88.9688 102 91.9658C102 94.9646 103.826 97 106.522 97ZM117.528 97C120.223 97 122.215 94.9783 122.215 91.9539C122.215 88.9688 120.223 87 117.528 87C114.845 87 112.883 88.9688 112.883 91.9539C112.883 94.9783 114.845 97 117.528 97ZM117.541 95.5809C115.744 95.5809 114.569 94.1482 114.569 91.9539C114.569 89.8253 115.744 88.4191 117.541 88.4191C119.311 88.4191 120.528 89.8116 120.528 91.9539C120.528 94.1619 119.326 95.5809 117.541 95.5809ZM126.641 95.2997V87.2018H124.968V96.7315H131.603V95.2997H126.641ZM135.752 95.2997V87.2018H134.08V96.7315H140.716V95.2997H135.752ZM144.865 95.3527V92.5018H149.773V91.1092H144.865V88.5798H150.257V87.2018H143.192V96.7315H150.381V95.3527H144.865ZM157.641 91.6051V92.9839H160.309V93.1446C160.06 94.6833 159.024 95.5809 157.531 95.5809C155.622 95.5809 154.516 94.1217 154.516 91.9658C154.516 89.8116 155.608 88.4053 157.585 88.4053C158.871 88.4053 159.825 89.008 160.06 90.186L161.691 90.0792C161.373 88.1652 159.839 87 157.502 87C154.696 87 152.83 88.9286 152.83 91.9539C152.83 95.0586 154.807 96.9452 157.406 96.9452C158.775 96.9452 159.784 96.4101 160.364 95.5536L160.683 96.7315H161.815V91.6051H157.641ZM166.601 95.3527V92.5018H171.51V91.1092H166.601V88.5798H171.992V87.2018H164.928V96.7315H172.117V95.3527H166.601Z" fill="#D34508"/>
</svg>
